<svg width="48" height="48" viewBox="0 0 48 48" fill="none" xmlns="http://www.w3.org/2000/svg">
<path fill-rule="evenodd" clip-rule="evenodd" d="M18.6438 7.50545C19.3329 6.64219 20.5913 6.501 21.4546 7.1901C22.3178 7.8792 22.459 9.13763 21.7699 10.0009L15.7838 17.5H32.2338L26.2477 10.0009C25.5586 9.13763 25.6998 7.8792 26.563 7.1901C27.4263 6.501 28.6847 6.64219 29.3738 7.50545L37.3519 17.5H37.9183C40.438 17.5 42.3301 19.8015 41.8427 22.2736L38.59 38.7736C38.2205 40.6484 36.5764 42 34.6656 42H12.8852C10.9313 42 9.26329 40.5884 8.94024 38.6613L6.17421 22.1613C5.7653 19.7221 7.64587 17.5 10.1192 17.5H10.6656L18.6438 7.50545ZM17 25C15.8954 25 15 25.8954 15 27V32C15 33.1046 15.8954 34 17 34C18.1045 34 19 33.1046 19 32V27C19 25.8954 18.1045 25 17 25ZM22 27C22 25.8954 22.8954 25 24 25C25.1045 25 26 25.8954 26 27V32C26 33.1046 25.1045 34 24 34C22.8954 34 22 33.1046 22 32V27ZM31 25C29.8954 25 29 25.8954 29 27V32C29 33.1046 29.8954 34 31 34C32.1045 34 33 33.1046 33 32V27C33 25.8954 32.1045 25 31 25Z" fill="black"/>
</svg>
