<svg width="16" height="16" viewBox="0 0 16 16" fill="none" xmlns="http://www.w3.org/2000/svg">
<path fill-rule="evenodd" clip-rule="evenodd" d="M14.6666 8C14.6666 11.6819 11.6819 14.6667 7.99998 14.6667C4.31808 14.6667 1.33331 11.6819 1.33331 8C1.33331 4.3181 4.31808 1.33333 7.99998 1.33333C11.6819 1.33333 14.6666 4.3181 14.6666 8ZM9.8521 5.13807C10.1125 4.87772 10.5346 4.87772 10.7949 5.13807C11.0553 5.39842 11.0553 5.82053 10.7949 6.08088L8.90928 7.96651L10.7949 9.85212C11.0552 10.1125 11.0552 10.5346 10.7949 10.7949C10.5345 11.0553 10.1124 11.0553 9.85208 10.7949L7.96647 8.90932L6.08087 10.7949C5.82052 11.0553 5.39841 11.0553 5.13806 10.7949C4.87771 10.5346 4.87771 10.1125 5.13806 9.85212L7.02366 7.96651L5.13803 6.08088C4.87768 5.82053 4.87768 5.39842 5.13803 5.13807C5.39838 4.87772 5.82049 4.87772 6.08084 5.13807L7.96647 7.0237L9.8521 5.13807Z" fill="#D9D9D9"/>
</svg>
