<svg width="48" height="48" viewBox="0 0 48 48" fill="none" xmlns="http://www.w3.org/2000/svg">
<path fill-rule="evenodd" clip-rule="evenodd" d="M11.5907 34.2046C14.4138 30.6664 19.2234 28 24.0001 28C28.7191 28 33.6809 30.5444 36.5863 33.9856C38.8419 31.1426 40.08 27.6029 40.0661 23.939C40.0499 19.6815 38.3445 15.6045 35.3245 12.6036C32.3045 9.60259 28.2168 7.92304 23.9593 7.93382C19.7018 7.9446 15.6227 9.64483 12.6179 12.6611C9.61311 15.6773 7.92839 19.7628 7.93378 24.0203C7.9385 27.7516 9.24102 31.3475 11.5907 34.2046ZM23.6807 43.9975C18.4962 43.9148 13.5414 41.8211 9.86682 38.1511C6.11682 34.4058 4.00673 29.3253 4.00002 24.0253C3.99331 18.7254 6.09053 13.6395 9.83103 9.88475C13.5715 6.13001 18.6494 4.01349 23.9493 4.00006C29.2493 3.98664 34.3378 6.07742 38.0973 9.81317C41.8568 13.5489 43.9797 18.6241 43.9999 23.924C44.02 29.2239 41.9357 34.3151 38.2047 38.0793C34.5705 41.7459 29.6634 43.8614 24.5132 43.9934L24.5 44H24H23.6863L23.6807 43.9975ZM32 18C32 22.4183 28.4183 26 24 26C19.5817 26 16 22.4183 16 18C16 13.5817 19.5817 10 24 10C28.4183 10 32 13.5817 32 18Z" fill="#D9D9D9"/>
</svg>
