<svg width="268" height="48" viewBox="0 0 268 48" fill="none" xmlns="http://www.w3.org/2000/svg">
<path d="M31.4347 15.7389C31.119 14.6288 30.6755 13.648 30.1042 12.7964C29.5329 11.9296 28.8339 11.1997 28.0071 10.6067C27.1953 9.99839 26.2632 9.53458 25.2109 9.21524C24.1736 8.8959 23.0235 8.73623 21.7607 8.73623C19.4005 8.73623 17.3259 9.32929 15.5369 10.5154C13.763 11.7015 12.3799 13.4275 11.3877 15.6933C10.3955 17.9439 9.89944 20.6963 9.89944 23.9505C9.89944 27.2047 10.388 29.9723 11.3652 32.2533C12.3424 34.5343 13.7254 36.2755 15.5144 37.4768C17.3033 38.663 19.4155 39.256 21.8509 39.256C24.0608 39.256 25.9475 38.8606 27.511 38.0699C29.0895 37.2639 30.2921 36.1311 31.119 34.6712C31.9608 33.2114 32.3818 31.4854 32.3818 29.4933L34.3662 29.7899H22.4598V22.3538H41.7851V28.2388C41.7851 32.3446 40.9282 35.8725 39.2144 38.8226C37.5006 41.7575 35.1404 44.0233 32.1337 45.62C29.127 47.2015 25.6844 47.9923 21.8058 47.9923C17.4762 47.9923 13.6728 47.0266 10.3955 45.0954C7.11827 43.1489 4.56261 40.3889 2.72855 36.8153C0.909516 33.2266 0 28.9687 0 24.0417C0 20.2553 0.541199 16.8794 1.6236 13.9141C2.72103 10.9336 4.25443 8.40929 6.22379 6.34118C8.19316 4.27307 10.4857 2.69918 13.1015 1.61951C15.7173 0.539836 18.5511 0 21.6029 0C24.2187 0 26.6541 0.38777 28.9091 1.16331C31.1641 1.92364 33.1635 3.00332 34.9074 4.40233C36.6663 5.80134 38.1019 7.46647 39.2144 9.39772C40.3269 11.3138 41.0409 13.4275 41.3566 15.7389H31.4347Z" fill="black"/>
<path d="M55.6533 47.3536H45.1901L61.133 0.63868H73.7159L89.6361 47.3536H79.173L67.6048 11.3138H67.244L55.6533 47.3536ZM54.9994 28.9915H79.7141V36.7013H54.9994V28.9915Z" fill="black"/>
<path d="M95.1947 47.3536V0.63868H113.415C116.903 0.63868 119.879 1.26976 122.345 2.53191C124.825 3.77886 126.712 5.55043 128.005 7.84664C129.313 10.1276 129.967 12.8116 129.967 15.8986C129.967 19.0007 129.305 21.6695 127.982 23.9049C126.659 26.1251 124.743 27.8282 122.232 29.0143C119.737 30.2004 116.715 30.7935 113.167 30.7935H100.967V22.8556H111.589C113.453 22.8556 115.001 22.5971 116.234 22.0801C117.467 21.5631 118.384 20.7875 118.985 19.7535C119.601 18.7194 119.909 17.4344 119.909 15.8986C119.909 14.3475 119.601 13.0397 118.985 11.9753C118.384 10.9108 117.459 10.1048 116.211 9.55739C114.979 8.99474 113.423 8.71342 111.543 8.71342H104.959V47.3536H95.1947ZM120.135 26.0946L131.613 47.3536H120.834L109.604 26.0946H120.135Z" fill="black"/>
<path d="M148.27 47.3536H137.806L153.749 0.638678H166.332L182.252 47.3536H171.789L160.221 11.3138H159.86L148.27 47.3536ZM147.616 28.9915H172.33V36.7013H147.616V28.9915Z" fill="black"/>
<path d="M234.999 47.3536V0.638678H266.118V8.78185H244.763V19.9131H264.517V28.0563H244.763V39.2104H266.208V47.3536H234.999Z" fill="black"/>
<circle cx="205" cy="24" r="21" stroke="black" stroke-width="6"/>
<circle cx="205" cy="24" r="7" stroke="black" stroke-width="6"/>
<rect x="202.5" y="1.5" width="5" height="15" fill="black" stroke="black"/>
<rect x="202.5" y="31.5" width="5" height="15" fill="black" stroke="black"/>
<rect x="183.5" y="26.5" width="5" height="15" transform="rotate(-90 183.5 26.5)" fill="black" stroke="black"/>
<rect x="0.703042" width="5" height="15" transform="matrix(0.703042 -0.711149 0.703042 0.711149 187.209 10.7669)" fill="black" stroke="black"/>
<rect x="-0.00650963" y="-0.711118" width="5" height="15" transform="matrix(-0.709522 -0.704683 0.696503 -0.717554 191.741 40.483)" fill="black" stroke="black"/>
<rect x="212.5" y="26.5" width="5" height="15" transform="rotate(-90 212.5 26.5)" fill="black" stroke="black"/>
<rect x="0.703042" width="5" height="15" transform="matrix(0.703042 -0.711149 0.703042 0.711149 208.209 31.7669)" fill="black" stroke="black"/>
<rect x="-0.00650963" y="-0.711118" width="5" height="15" transform="matrix(-0.709522 -0.704683 0.696503 -0.717554 212.741 20.483)" fill="black" stroke="black"/>
</svg>
